<svg id="Layer_1" enable-background="new 0 0 512 512" viewBox="0 0 512 512" xmlns="http://www.w3.org/2000/svg"><g><path d="m285.217 85.991v73.746h15l7.264-35.713-7.264-38.033z" fill="#bfd3dd"/><path d="m300.217 85.991h15v73.746h-15z" fill="#a1c3ce"/><path d="m300.217 71.759h-164.35l-19.751-19.769c-5.856-5.86-15.352-5.865-21.213-.009-5.86 5.855-5.864 15.353-.009 21.213l24.146 24.167c2.813 2.816 6.631 4.398 10.611 4.398h170.567l15-15.768z" fill="#d3e7ec"/><path d="m300.217 142.714h-22.807c-6.804 0-12.32 5.516-12.32 12.32v57.516h56.41z" fill="#666463"/><path d="m485.729 52.17-19.571 19.588h-165.941v30h172.158c3.98 0 7.798-1.582 10.611-4.398l23.966-23.986c5.855-5.86 5.852-15.358-.01-21.213-5.86-5.855-15.356-5.851-21.213.009z" fill="#bfd3dd"/><path d="m324.906 142.714h-24.689v69.836h37.009v-57.516c0-6.804-5.516-12.32-12.32-12.32z" fill="#474746"/><path d="m351.786 327.642h145.021c-3.634-67.187-59.214-120.547-127.25-120.547h-67.084v71.192c0 27.258 22.078 49.355 49.313 49.355z" fill="#8beae7"/><path d="m67.24 189.09-5.398-5.402c-1.92-1.921-2.998-4.526-2.998-7.242v-31.762c0-5.658-4.587-10.245-10.245-10.245h-38.354c-5.658 0-10.245 4.587-10.245 10.245v73.147c0 2.7 1.066 5.291 2.966 7.209l23.935 24.168c1.924 1.943 4.545 3.036 7.28 3.036h113.968c7.75.091 16.263 5.665 18.311 14.383 2.245 9.553 9.438 45.1 9.438 45.1 10.6 33.006 34.345 59.052 64.326 73.109l27.829-125.199-27.829-67.543h-165.736c-2.719 0-5.326-1.08-7.248-3.004z" fill="#666463"/><g><path d="m368.48 342.642c-8.284 0-15-6.716-15-15v-49.265c0-8.284 6.716-15 15-15s15 6.716 15 15v49.265c0 8.284-6.716 15-15 15z" fill="#00d7df"/></g><path d="m257.612 354.1c-8.284 0-15 6.716-15 15v80.308h30v-80.308c0-8.284-6.716-15-15-15z" fill="#bfd3dd"/><path d="m429.188 373.66c-8.284 0-15 6.716-15 15v60.748h30v-60.748c0-8.284-6.716-15-15-15z" fill="#a1c3ce"/><g><path d="m300.217 464.408h-106.443c-3.98 0-7.798-1.582-10.611-4.398l-21.995-22.014c-5.855-5.86-5.851-15.358.009-21.213s15.358-5.852 21.213.009l17.601 17.616h100.226l20.874 15z" fill="#d3e7ec"/></g><path d="m240.224 192.094v192.742c15.815 7.415 33.364 11.496 51.637 11.496h8.357l7.5-102.119-7.5-102.119z" fill="#fff5f5"/><path d="m369.557 192.094h-69.34v204.238h154.459c31.659 0 57.324-25.687 57.324-57.374v-4.782c0-10.716-1.051-21.426-3.47-31.865-14.709-63.454-71.714-110.217-138.973-110.217zm-17.772 120.548c-18.92 0-34.313-15.412-34.313-34.355v-56.192h52.084c54.338 0 100.057 38.665 110.298 90.548h-128.069z" fill="#d3e7ec"/><path d="m470.402 434.408h-170.185v30h170.186c8.284 0 15-6.716 15-15s-6.716-15-15.001-15z" fill="#bfd3dd"/></g><g/><g/><g/><g/><g/><g/><g/><g/><g/><g/><g/><g/><g/><g/><g/></svg>